<?xml version="1.0" encoding="utf-8"?>
<!-- Generator: Adobe Illustrator 16.0.0, SVG Export Plug-In . SVG Version: 6.00 Build 0)  -->
<!DOCTYPE svg PUBLIC "-//W3C//DTD SVG 1.1//EN" "http://www.w3.org/Graphics/SVG/1.1/DTD/svg11.dtd">
<svg version="1.1" xmlns="http://www.w3.org/2000/svg" xmlns:xlink="http://www.w3.org/1999/xlink" x="0px" y="0px" width="24px"
	 height="24px" viewBox="0 0 24 24" enable-background="new 0 0 24 24" xml:space="preserve">
<g id="Layer_2">
</g>
<g id="Layer_3">
	<g>
		<g>
			<g>
				<rect x="2.312" y="3.62" fill="#EDEDED" width="19.305" height="19.304"/>
				<linearGradient id="SVGID_1_" gradientUnits="userSpaceOnUse" x1="11.9648" y1="22.9238" x2="11.9648" y2="3.6206">
					<stop  offset="0" style="stop-color:#859392"/>
					<stop  offset="1" style="stop-color:#8D9A99"/>
				</linearGradient>
				<path fill="url(#SVGID_1_)" d="M20.617,4.62v17.304H3.312V4.62H20.617 M21.617,3.62H2.312v19.304h19.305V3.62L21.617,3.62z"/>
			</g>
			<g>
				<linearGradient id="SVGID_2_" gradientUnits="userSpaceOnUse" x1="5.0464" y1="11.0732" x2="18.7783" y2="11.0732">
					<stop  offset="0" style="stop-color:#7FA1D5"/>
					<stop  offset="1" style="stop-color:#8EB2DF"/>
				</linearGradient>
				<rect x="5.046" y="6.564" fill="url(#SVGID_2_)" width="13.732" height="9.018"/>
				<path fill="#878787" d="M18.278,7.064v8.018H5.546V7.064H18.278 M19.278,6.064H4.546v10.018h14.732V6.064L19.278,6.064z"/>
			</g>
			<line fill="none" stroke="#878787" stroke-miterlimit="10" x1="16.59" y1="16.006" x2="16.59" y2="12.376"/>
			<line fill="none" stroke="#878787" stroke-miterlimit="10" x1="15.438" y1="16.006" x2="15.438" y2="10.456"/>
			<line fill="none" stroke="#878787" stroke-miterlimit="10" x1="14.285" y1="16.006" x2="14.285" y2="13.633"/>
		</g>
		<g>
			<g>
				
					<rect x="2.312" y="2.476" transform="matrix(0.9678 0.2517 -0.2517 0.9678 3.4372 -2.6207)" fill="#EDEDED" width="19.304" height="19.302"/>
				<linearGradient id="SVGID_3_" gradientUnits="userSpaceOnUse" x1="9.5361" y1="21.4697" x2="14.3919" y2="2.7852">
					<stop  offset="0" style="stop-color:#859392"/>
					<stop  offset="1" style="stop-color:#8D9A99"/>
				</linearGradient>
				<path fill="url(#SVGID_3_)" d="M5.767,1.577l16.749,4.353l-4.354,16.749L1.414,18.323L5.767,1.577 M5.05,0.357L0.195,19.039
					l18.683,4.858l4.857-18.685L5.05,0.357L5.05,0.357z"/>
			</g>
			<g>
				<linearGradient id="SVGID_4_" gradientUnits="userSpaceOnUse" x1="4.688" y1="9.9858" x2="20.2471" y2="9.9858">
					<stop  offset="0" style="stop-color:#7FA1D5"/>
					<stop  offset="1" style="stop-color:#8EB2DF"/>
				</linearGradient>
				<polygon fill="url(#SVGID_4_)" points="4.688,12.623 6.956,3.895 20.247,7.349 17.979,16.077 				"/>
				<path fill="#878787" d="M7.314,4.504l12.323,3.203l-2.017,7.76L5.297,12.265L7.314,4.504 M6.598,3.285l-2.52,9.696l14.259,3.706
					l2.52-9.696L6.598,3.285L6.598,3.285z"/>
			</g>
			<line fill="none" stroke="#878787" stroke-miterlimit="10" x1="15.754" y1="15.937" x2="16.667" y2="12.423"/>
			<line fill="none" stroke="#878787" stroke-miterlimit="10" x1="14.639" y1="15.647" x2="16.033" y2="10.274"/>
			<line fill="none" stroke="#878787" stroke-miterlimit="10" x1="13.522" y1="15.357" x2="14.12" y2="13.06"/>
		</g>
	</g>
</g>
</svg>
