<?xml version="1.0" encoding="utf-8"?>
<!-- Generator: Adobe Illustrator 16.0.0, SVG Export Plug-In . SVG Version: 6.00 Build 0)  -->
<!DOCTYPE svg PUBLIC "-//W3C//DTD SVG 1.1//EN" "http://www.w3.org/Graphics/SVG/1.1/DTD/svg11.dtd">
<svg version="1.1" xmlns="http://www.w3.org/2000/svg" xmlns:xlink="http://www.w3.org/1999/xlink" x="0px" y="0px" width="24px"
	 height="24px" viewBox="0 0 24 24" enable-background="new 0 0 24 24" xml:space="preserve">
<g id="Layer_1">
	<g>
		<circle fill="#FFFFFF" cx="12" cy="12" r="12"/>
		<linearGradient id="SVGID_1_" gradientUnits="userSpaceOnUse" x1="12.0005" y1="24" x2="12.0005" y2="4.882812e-04">
			<stop  offset="0" style="stop-color:#6C8FC9"/>
			<stop  offset="1" style="stop-color:#7A9ED3"/>
		</linearGradient>
		<path fill="url(#SVGID_1_)" d="M12,3c4.963,0,9,4.038,9,9c0,4.963-4.037,9-9,9c-4.962,0-9-4.037-9-9C3,7.038,7.038,3,12,3 M12,0
			C5.373,0,0,5.373,0,12c0,6.627,5.373,12,12,12c6.627,0,12-5.373,12-12C24,5.373,18.627,0,12,0L12,0z"/>
	</g>
</g>
<g id="Layer_2">
	<circle stroke="#000000" stroke-width="3" stroke-linejoin="bevel" stroke-miterlimit="10" cx="12" cy="12" r="1.326"/>
</g>
</svg>
