<?xml version="1.0" encoding="utf-8"?>
<!-- Generator: Adobe Illustrator 16.0.0, SVG Export Plug-In . SVG Version: 6.00 Build 0)  -->
<!DOCTYPE svg PUBLIC "-//W3C//DTD SVG 1.1//EN" "http://www.w3.org/Graphics/SVG/1.1/DTD/svg11.dtd">
<svg version="1.1" xmlns="http://www.w3.org/2000/svg" xmlns:xlink="http://www.w3.org/1999/xlink" x="0px" y="0px" width="24px"
	 height="24px" viewBox="0 0 24 24" enable-background="new 0 0 24 24" xml:space="preserve">
<g id="Layer_1">
	<g>
		<rect fill="#FFFFFF" width="24" height="24"/>
		<linearGradient id="SVGID_1_" gradientUnits="userSpaceOnUse" x1="12.0005" y1="24" x2="12.0005" y2="4.882812e-04">
			<stop  offset="0" style="stop-color:#F5AE0F"/>
			<stop  offset="1" style="stop-color:#F9C12B"/>
		</linearGradient>
		<path fill="url(#SVGID_1_)" d="M23,1v22H1V1H23 M24,0H0v24h24V0L24,0z"/>
	</g>
</g>
<g id="Layer_2">
	<circle fill="#009FE3" stroke="#312783" stroke-width="0.5" stroke-miterlimit="10" cx="18.25" cy="18.383" r="2.716"/>
	<g>
		<linearGradient id="SVGID_2_" gradientUnits="userSpaceOnUse" x1="17.4141" y1="20.457" x2="21.6133" y2="20.457">
			<stop  offset="0" style="stop-color:#F8BE28"/>
			<stop  offset="1" style="stop-color:#F9C12B"/>
		</linearGradient>
		<polygon fill="none" stroke="url(#SVGID_2_)" stroke-miterlimit="10" points="18,18.5 19,18.5 20.601,21.501 19.301,21.1 
			18.534,21.867 		"/>
		<linearGradient id="SVGID_3_" gradientUnits="userSpaceOnUse" x1="14.9873" y1="20.457" x2="19.1865" y2="20.457">
			<stop  offset="0" style="stop-color:#F8BE28"/>
			<stop  offset="1" style="stop-color:#F9C12B"/>
		</linearGradient>
		<polygon fill="none" stroke="url(#SVGID_3_)" stroke-miterlimit="10" points="18.601,18.5 17.601,18.5 16,21.501 17.3,21.1 
			18.066,21.867 		"/>
	</g>
	<line fill="none" stroke="#000000" stroke-miterlimit="10" x1="4" y1="4.5" x2="20" y2="4.5"/>
	<line fill="none" stroke="#000000" stroke-miterlimit="10" x1="4" y1="8.5" x2="20" y2="8.5"/>
	<line fill="none" stroke="#000000" stroke-miterlimit="10" x1="4" y1="14.5" x2="12" y2="14.5"/>
	<line fill="none" stroke="#000000" stroke-miterlimit="10" x1="4" y1="17.5" x2="12" y2="17.5"/>
</g>
<g id="Layer_3">
</g>
</svg>
