<?xml version="1.0" encoding="utf-8"?>
<!-- Generator: Adobe Illustrator 16.0.0, SVG Export Plug-In . SVG Version: 6.00 Build 0)  -->
<!DOCTYPE svg PUBLIC "-//W3C//DTD SVG 1.1//EN" "http://www.w3.org/Graphics/SVG/1.1/DTD/svg11.dtd">
<svg version="1.1" id="Layer_1" xmlns="http://www.w3.org/2000/svg" xmlns:xlink="http://www.w3.org/1999/xlink" x="0px" y="0px"
	 width="24px" height="24px" viewBox="0 0 24 24" enable-background="new 0 0 24 24" xml:space="preserve">
<g>
	<rect x="0.153" y="4.323" fill="#FFFFFF" width="15.209" height="15.209"/>
	<linearGradient id="SVGID_1_" gradientUnits="userSpaceOnUse" x1="7.7578" y1="19.5322" x2="7.7578" y2="4.3232">
		<stop  offset="0" style="stop-color:#6C8FC9"/>
		<stop  offset="1" style="stop-color:#7A9ED3"/>
	</linearGradient>
	<path fill="url(#SVGID_1_)" d="M14.362,5.323v13.209H1.153V5.323H14.362 M15.362,4.323H0.153v15.209h15.209V4.323L15.362,4.323z"/>
</g>
<g>
	<rect x="16.605" y="4.323" fill="#FFFFFF" width="6.395" height="6.394"/>
	<linearGradient id="SVGID_2_" gradientUnits="userSpaceOnUse" x1="19.8027" y1="10.7168" x2="19.8027" y2="4.3228">
		<stop  offset="0" style="stop-color:#6C8FC9"/>
		<stop  offset="1" style="stop-color:#7A9ED3"/>
	</linearGradient>
	<path fill="url(#SVGID_2_)" d="M22,5.323v4.394h-4.395V5.323H22 M23,4.323h-6.395v6.394H23V4.323L23,4.323z"/>
</g>
<g>
	<rect x="16.605" y="13.139" fill="#FFFFFF" width="6.395" height="6.394"/>
	<linearGradient id="SVGID_3_" gradientUnits="userSpaceOnUse" x1="19.8027" y1="19.5322" x2="19.8027" y2="13.1387">
		<stop  offset="0" style="stop-color:#6C8FC9"/>
		<stop  offset="1" style="stop-color:#7A9ED3"/>
	</linearGradient>
	<path fill="url(#SVGID_3_)" d="M22,14.139v4.394h-4.395v-4.394H22 M23,13.139h-6.395v6.394H23V13.139L23,13.139z"/>
</g>
<g id="Check">
	<polygon fill="#009640" points="6.385,12.06 4.412,9.917 2.232,12.096 2.231,12.096 6.34,16.205 13.283,9.263 11.697,7.649 	"/>
</g>
</svg>
